<svg xmlns="http://www.w3.org/2000/svg" width="350" height="168" viewBox="0 0 350 168" font-family="Segoe UI, Ubuntu, sans-serif"><rect width="350" height="168" rx="12" fill="#0D1B2E"/><text x="25" y="33" fill="#00D4FF" font-size="18" font-weight="700">Most Used Languages</text><mask id="bar"><rect x="25" y="47" width="300" height="8" rx="4" fill="white"/></mask><rect mask="url(#bar)" x="25.00" y="47" width="256.19" height="8" fill="#DA5B0B"/><rect mask="url(#bar)" x="280.19" y="47" width="18.98" height="8" fill="#e34c26"/><rect mask="url(#bar)" x="298.17" y="47" width="11.96" height="8" fill="#f1e05a"/><rect mask="url(#bar)" x="309.12" y="47" width="8.17" height="8" fill="#563d7c"/><rect mask="url(#bar)" x="316.30" y="47" width="5.20" height="8" fill="#4F5D95"/><rect mask="url(#bar)" x="320.50" y="47" width="3.25" height="8" fill="#3178c6"/><rect mask="url(#bar)" x="322.75" y="47" width="2.56" height="8" fill="#b07219"/><rect mask="url(#bar)" x="324.31" y="47" width="1.39" height="8" fill="#3572A5"/><circle cx="30" cy="76" r="5" fill="#DA5B0B"/><text x="43" y="80" fill="#F0F4FF" font-size="12" font-weight="600">Jupyter Notebook 85.06%</text><circle cx="195" cy="76" r="5" fill="#e34c26"/><text x="208" y="80" fill="#F0F4FF" font-size="12" font-weight="600">HTML 5.99%</text><circle cx="30" cy="98" r="5" fill="#f1e05a"/><text x="43" y="102" fill="#F0F4FF" font-size="12" font-weight="600">JavaScript 3.65%</text><circle cx="195" cy="98" r="5" fill="#563d7c"/><text x="208" y="102" fill="#F0F4FF" font-size="12" font-weight="600">CSS 2.39%</text><circle cx="30" cy="120" r="5" fill="#4F5D95"/><text x="43" y="124" fill="#F0F4FF" font-size="12" font-weight="600">PHP 1.40%</text><circle cx="195" cy="120" r="5" fill="#3178c6"/><text x="208" y="124" fill="#F0F4FF" font-size="12" font-weight="600">TypeScript 0.75%</text><circle cx="30" cy="142" r="5" fill="#b07219"/><text x="43" y="146" fill="#F0F4FF" font-size="12" font-weight="600">Java 0.52%</text><circle cx="195" cy="142" r="5" fill="#3572A5"/><text x="208" y="146" fill="#F0F4FF" font-size="12" font-weight="600">Python 0.13%</text></svg>